<?xml version="1.0" encoding="UTF-8" standalone="no"?>
<!DOCTYPE svg PUBLIC "-//W3C//DTD SVG 1.1//EN" "http://www.w3.org/Graphics/SVG/1.1/DTD/svg11.dtd">
<svg xmlns="http://www.w3.org/2000/svg" version="1.1" viewBox="0.00 0.00 2018.00 1558.00">
<path fill="#1e4c36" d="
  M 1091.59 379.70
  C 1089.80 384.96 1089.74 388.96 1089.43 396.11
  Q 1089.21 401.40 1089.34 407.54
  Q 1089.87 432.99 1089.75 450.25
  C 1089.55 480.11 1089.91 495.67 1089.85 521.30
  Q 1089.79 544.98 1089.56 554.69
  C 1089.18 570.35 1090.01 583.24 1089.84 599.19
  Q 1089.57 622.62 1089.22 641.57
  C 1089.03 651.58 1089.64 662.36 1088.93 672.04
  Q 1087.41 692.64 1085.15 704.81
  Q 1084.72 707.08 1081.18 720.48
  Q 1079.13 728.21 1077.16 732.62
  C 1074.86 737.78 1073.53 743.07 1070.80 748.45
  C 1067.11 755.68 1060.96 767.78 1055.08 775.33
  Q 1045.52 787.61 1042.03 791.78
  C 1040.52 793.58 1038.72 795.44 1036.84 796.93
  Q 1030.07 802.30 1024.78 809.60
  A 3.90 3.75 -1.4 0 1 1024.00 810.39
  Q 1012.35 818.84 1005.34 823.51
  C 1003.28 824.88 1001.54 826.91 1000.45 828.91
  A 1.26 1.26 0.0 0 0 1001.24 830.74
  C 1021.30 835.89 1041.20 836.29 1062.31 832.77
  Q 1068.26 831.77 1077.02 830.74
  Q 1078.07 830.61 1079.46 829.53
  A 1.28 1.08 -68.2 0 1 1079.80 829.35
  L 1097.17 823.91
  A 3.00 2.88 -71.2 0 0 1098.04 823.46
  L 1100.38 821.74
  A 0.90 0.63 9.7 0 1 1100.61 821.63
  Q 1104.18 820.72 1105.70 819.72
  Q 1109.19 817.41 1114.41 813.67
  Q 1115.42 812.95 1121.52 809.56
  A 3.36 3.13 -79.1 0 0 1122.15 809.10
  Q 1123.35 807.94 1125.45 807.13
  A 3.34 3.23 -76.0 0 0 1126.46 806.50
  Q 1129.46 803.85 1133.00 802.37
  A 1.59 1.50 5.7 0 0 1133.61 801.90
  L 1135.24 799.79
  A 1.74 1.69 0.9 0 1 1135.56 799.49
  L 1139.86 796.41
  A 1.01 0.98 -11.2 0 0 1140.24 795.86
  Q 1140.72 794.02 1144.97 790.74
  Q 1146.77 789.36 1154.31 780.34
  Q 1156.11 778.18 1158.24 776.21
  Q 1160.02 774.56 1161.39 771.99
  A 4.18 4.05 81.0 0 1 1161.91 771.25
  Q 1167.03 765.40 1172.27 757.14
  C 1175.17 752.57 1175.72 746.91 1179.72 743.32
  A 1.08 0.95 -10.6 0 0 1179.93 743.05
  L 1183.00 737.52
  A 2.47 2.39 -29.9 0 0 1183.30 736.48
  C 1183.53 731.75 1185.13 728.51 1187.45 723.41
  A 1.68 1.47 64.3 0 0 1187.58 722.94
  L 1188.32 715.51
  A 0.93 0.83 60.3 0 1 1188.37 715.28
  Q 1190.26 710.03 1190.50 708.80
  C 1192.12 700.47 1197.78 679.20 1187.96 677.67
  Q 1183.27 676.95 1175.67 676.91
  Q 1156.81 676.83 1156.63 676.83
  Q 1145.12 676.83 1127.55 676.96
  A 0.96 0.95 22.4 0 1 1126.87 675.33
  Q 1131.18 670.98 1133.89 666.04
  A 4.36 4.32 80.8 0 1 1134.52 665.16
  L 1137.67 661.80
  A 2.25 2.10 82.8 0 0 1138.01 661.33
  Q 1139.65 658.32 1142.01 656.07
  C 1146.15 652.14 1149.47 647.77 1152.59 643.60
  C 1154.00 641.71 1156.18 640.10 1157.67 637.70
  Q 1160.53 633.08 1163.45 630.00
  Q 1166.79 626.49 1167.95 624.92
  Q 1170.47 621.48 1172.26 619.64
  C 1174.37 617.47 1174.87 615.08 1176.93 613.30
  Q 1181.83 609.07 1184.82 603.12
  A 8.71 8.63 82.2 0 1 1186.65 600.69
  Q 1190.01 597.55 1191.00 596.02
  C 1192.89 593.08 1195.08 591.32 1196.44 588.59
  A 2.31 2.30 -4.2 0 1 1197.17 587.75
  Q 1200.71 585.31 1203.41 580.44
  C 1204.05 579.28 1205.27 578.21 1206.77 577.97
  Q 1207.98 577.77 1208.47 576.57
  Q 1211.11 570.15 1216.47 565.25
  A 10.18 10.10 -4.2 0 0 1218.02 563.47
  C 1220.31 560.08 1222.25 558.35 1224.49 554.94
  Q 1226.01 552.63 1227.83 552.01
  A 1.84 1.81 -0.1 0 0 1228.96 550.89
  L 1229.83 548.50
  A 2.82 2.76 79.3 0 1 1230.61 547.33
  Q 1231.28 546.74 1234.97 542.71
  Q 1236.91 540.60 1238.75 537.56
  Q 1240.89 534.00 1242.83 532.60
  Q 1243.00 532.49 1244.65 529.39
  Q 1245.84 527.16 1248.18 526.09
  A 3.23 3.18 -87.3 0 0 1249.62 524.76
  Q 1252.24 520.10 1253.05 519.46
  Q 1256.86 516.45 1258.60 511.43
  Q 1259.16 509.79 1261.79 509.37
  A 1.01 1.00 6.1 0 0 1262.57 508.75
  Q 1265.19 501.96 1271.64 496.12
  Q 1273.52 494.42 1276.33 491.29
  A 1.38 1.36 74.9 0 0 1276.63 490.76
  L 1277.48 488.07
  A 1.29 1.28 -11.8 0 1 1277.87 487.48
  Q 1285.55 481.01 1287.39 478.43
  Q 1293.11 470.37 1294.62 468.13
  Q 1297.34 464.09 1302.45 458.31
  Q 1312.92 446.44 1319.06 437.80
  Q 1320.20 436.20 1321.38 434.14
  A 0.32 0.32 0.0 0 1 1321.97 434.32
  Q 1321.17 447.75 1321.92 461.92
  Q 1322.50 472.86 1322.52 486.05
  Q 1322.61 575.86 1322.71 580.99
  Q 1323.00 596.20 1323.10 604.74
  C 1323.36 626.48 1322.60 646.80 1322.43 669.33
  Q 1322.37 677.03 1322.07 682.55
  C 1321.67 690.03 1321.72 694.65 1320.99 700.19
  C 1319.88 708.73 1319.66 718.51 1317.96 727.70
  C 1316.76 734.17 1316.13 740.49 1314.31 746.76
  Q 1306.72 773.06 1299.99 789.76
  Q 1298.51 793.44 1287.89 814.35
  A 0.72 0.71 -42.5 0 0 1287.86 814.94
  Q 1287.97 815.19 1288.17 815.24
  A 0.54 0.53 22.5 0 1 1288.50 816.03
  Q 1280.21 830.37 1274.76 838.26
  Q 1227.58 906.64 1153.39 940.80
  Q 1092.63 968.78 1025.02 966.11
  C 962.68 963.65 902.26 940.14 853.81 900.20
  C 815.94 868.97 786.61 829.57 767.68 783.84
  Q 766.00 779.79 761.26 766.00
  Q 755.91 750.45 752.91 734.46
  A 0.23 0.23 0.0 0 1 753.30 734.25
  Q 753.33 734.28 753.39 734.42
  A 0.27 0.27 0.0 0 0 753.90 734.32
  Q 754.14 730.18 753.25 725.79
  Q 752.20 720.63 752.02 719.12
  Q 749.44 697.44 749.47 686.82
  Q 749.50 677.10 749.60 667.36
  C 749.63 664.36 750.20 661.72 750.33 658.71
  Q 750.42 656.71 750.75 655.27
  C 751.77 650.73 751.47 645.10 752.46 640.33
  Q 752.49 640.18 753.47 633.24
  A 4.76 4.74 63.3 0 1 753.98 631.69
  Q 755.76 628.34 755.64 623.57
  Q 755.61 622.73 757.29 619.02
  A 8.10 7.92 61.3 0 0 757.95 616.67
  Q 759.31 605.12 764.03 593.66
  A 4.21 4.04 -31.9 0 0 764.34 592.44
  Q 764.90 587.39 766.77 584.20
  Q 771.60 576.01 772.68 569.66
  A 2.35 2.30 -21.5 0 1 773.14 568.63
  Q 775.27 565.95 775.50 565.21
  Q 776.92 560.75 778.51 557.62
  C 779.52 555.63 780.03 553.49 781.78 551.44
  A 3.30 3.26 72.7 0 0 782.48 550.09
  C 783.35 546.47 784.44 545.57 787.48 542.34
  A 3.56 3.37 -11.0 0 0 788.03 541.57
  Q 789.86 538.11 792.14 532.90
  Q 793.67 529.41 800.43 519.90
  Q 804.02 514.85 815.01 502.00
  C 818.63 497.76 823.29 494.86 826.52 490.53
  Q 828.54 487.82 829.89 486.36
  A 5.90 3.92 -23.8 0 1 830.45 485.82
  L 847.27 470.99
  A 2.28 2.28 0.0 0 0 847.58 470.68
  C 849.12 468.86 852.20 464.34 855.96 462.21
  C 862.93 458.28 867.45 455.88 871.93 450.38
  A 3.57 3.30 -86.0 0 1 872.61 449.74
  Q 881.14 443.82 887.03 440.77
  Q 902.33 432.82 905.86 430.91
  C 914.84 426.06 926.32 422.13 934.13 418.89
  Q 936.84 417.76 947.64 414.66
  Q 951.94 413.42 957.63 410.57
  A 0.58 0.58 0.0 0 0 957.48 409.48
  Q 957.47 409.48 957.20 409.45
  A 0.05 0.04 26.7 0 1 957.17 409.37
  L 957.75 408.94
  A 0.94 0.93 71.3 0 0 958.11 408.20
  L 958.11 379.62
  A 0.83 0.82 -76.3 0 0 957.67 378.89
  Q 934.61 367.10 916.75 348.77
  Q 888.20 319.50 878.53 279.71
  A 0.27 0.27 0.0 0 1 878.81 279.37
  Q 879.03 279.39 879.22 279.50
  A 0.50 0.50 0.0 0 0 879.97 278.97
  Q 878.84 273.79 877.64 263.30
  Q 877.38 261.05 876.71 258.52
  A 8.66 8.48 37.6 0 1 876.42 256.47
  Q 876.05 239.16 876.45 235.74
  Q 877.63 225.63 877.76 225.25
  C 878.65 222.63 878.26 219.13 879.23 216.12
  C 880.40 212.49 881.24 207.11 883.20 202.81
  C 884.84 199.18 885.54 196.35 887.11 192.88
  A 4.98 4.81 60.2 0 0 887.54 191.17
  L 887.72 188.52
  A 4.03 3.88 58.7 0 1 887.99 187.31
  L 890.89 179.82
  A 3.36 2.72 -25.0 0 1 891.11 179.37
  L 896.67 169.71
  A 0.24 0.23 -65.3 0 1 896.95 169.60
  Q 897.56 169.78 897.61 169.03
  Q 898.93 167.11 900.78 164.75
  C 902.74 162.26 904.44 159.41 906.77 157.51
  Q 908.01 156.50 909.99 152.74
  A 8.48 7.96 80.1 0 1 910.85 151.43
  Q 914.35 147.10 915.18 146.42
  C 917.14 144.79 919.88 142.30 921.43 139.62
  Q 922.42 137.91 925.35 136.11
  Q 926.56 135.36 929.83 131.89
  A 1.80 1.67 2.1 0 1 930.12 131.64
  L 943.07 122.19
  A 1.66 0.42 -20.6 0 1 943.24 122.09
  Q 956.26 115.37 967.13 109.35
  C 970.44 107.51 972.89 106.84 976.88 105.74
  C 981.51 104.46 986.26 101.93 990.92 100.82
  Q 990.93 100.82 1006.10 98.13
  Q 1013.24 96.86 1019.48 96.98
  Q 1035.15 97.27 1044.15 97.81
  Q 1050.01 98.15 1056.27 99.71
  Q 1067.87 102.59 1080.88 107.55
  C 1091.61 111.64 1101.76 117.18 1110.42 122.81
  Q 1113.54 124.85 1123.94 134.02
  A 11.22 10.90 80.3 0 0 1125.61 135.24
  Q 1128.53 136.99 1129.23 138.03
  Q 1134.35 145.71 1140.89 151.87
  A 7.82 7.59 -84.7 0 1 1142.18 153.47
  Q 1144.49 157.27 1148.05 160.61
  A 7.83 7.78 -78.9 0 1 1150.01 163.55
  C 1151.59 167.75 1152.59 169.94 1155.25 174.13
  C 1166.54 191.90 1171.24 213.49 1172.27 234.71
  Q 1172.53 240.15 1172.17 244.61
  C 1171.47 253.09 1171.45 260.62 1172.21 268.50
  A 0.29 0.29 0.0 0 0 1172.69 268.68
  L 1173.05 268.37
  A 0.29 0.28 63.5 0 1 1173.52 268.53
  Q 1173.58 268.83 1173.55 269.02
  Q 1169.20 293.50 1159.96 311.52
  Q 1137.78 354.75 1094.43 377.93
  Q 1093.58 378.39 1092.99 378.49
  Q 1091.77 378.70 1091.91 379.88
  A 0.09 0.09 0.0 0 1 1091.74 379.92
  Q 1091.70 379.81 1091.74 379.67
  A 0.09 0.05 -41.5 0 0 1091.59 379.70
  Z
  M 833.18 541.91
  L 833.04 541.66
  A 0.38 0.38 0.0 0 0 832.41 541.60
  Q 830.10 544.34 827.95 547.93
  C 824.98 552.88 822.96 555.25 819.22 560.20
  C 817.62 562.30 815.65 565.68 814.83 567.60
  Q 806.83 586.31 803.74 592.87
  Q 801.64 597.31 800.13 601.87
  C 796.40 613.06 793.67 624.74 790.31 635.25
  C 788.18 641.93 788.49 647.74 787.85 656.74
  Q 787.43 662.72 787.48 671.03
  Q 787.64 694.03 787.70 697.04
  C 787.93 708.79 788.56 717.61 791.61 727.93
  Q 794.72 738.44 799.00 753.27
  Q 801.59 762.25 809.33 779.38
  C 812.15 785.64 815.83 790.71 818.16 796.25
  C 820.83 802.59 826.64 810.34 830.06 816.69
  Q 832.65 821.50 842.31 833.20
  Q 873.91 871.48 916.08 895.19
  Q 921.81 898.41 924.42 899.66
  Q 930.88 902.76 932.85 904.04
  Q 935.90 906.02 943.04 908.69
  C 952.01 912.04 959.48 915.17 967.72 917.29
  Q 980.72 920.63 980.77 920.65
  Q 994.65 923.93 999.08 924.41
  Q 1004.76 925.01 1016.16 926.20
  Q 1038.65 928.54 1062.67 925.69
  Q 1065.77 925.32 1077.13 924.06
  Q 1083.70 923.33 1094.96 920.39
  Q 1105.06 917.75 1120.68 912.61
  Q 1131.77 908.97 1140.92 904.89
  Q 1144.03 903.50 1150.63 899.20
  Q 1153.17 897.55 1161.64 893.10
  Q 1166.98 890.29 1174.21 884.69
  C 1176.88 882.63 1180.18 881.03 1182.08 879.76
  A 6.11 5.94 0.8 0 0 1183.51 878.41
  Q 1186.00 875.14 1190.29 873.11
  Q 1191.66 872.47 1192.17 871.78
  Q 1192.72 871.04 1193.44 869.77
  A 4.67 4.60 -4.8 0 1 1194.54 868.49
  L 1200.03 864.16
  A 1.49 1.07 -9.2 0 0 1200.27 863.92
  Q 1202.80 860.76 1206.52 858.61
  A 3.73 3.72 -84.5 0 0 1207.50 857.80
  C 1209.32 855.71 1210.48 854.01 1212.48 852.12
  Q 1218.88 846.08 1223.17 840.84
  C 1224.49 839.23 1226.72 837.41 1228.10 835.11
  A 3.33 3.19 -3.4 0 1 1228.98 834.16
  Q 1231.23 832.57 1232.46 830.07
  A 0.80 0.46 -30.1 0 1 1232.54 829.93
  L 1238.47 822.16
  A 10.17 10.14 86.9 0 1 1239.57 820.93
  L 1242.03 818.58
  A 0.89 0.81 -12.6 0 0 1242.24 818.28
  L 1244.30 813.44
  A 1.08 0.28 -75.7 0 1 1244.36 813.33
  Q 1249.12 806.62 1252.26 800.67
  C 1253.10 799.07 1255.15 797.66 1255.61 796.30
  Q 1256.95 792.28 1258.52 788.75
  Q 1260.09 785.21 1261.12 784.81
  A 0.84 0.84 0.0 0 0 1261.65 784.06
  Q 1261.72 782.72 1262.34 781.26
  Q 1264.47 776.25 1266.71 770.42
  Q 1267.91 767.29 1269.68 764.19
  Q 1271.90 760.31 1272.66 757.93
  Q 1273.40 755.60 1275.47 747.20
  A 2.91 2.65 -25.2 0 1 1275.80 746.40
  Q 1276.53 745.23 1276.76 744.28
  Q 1278.50 737.32 1279.58 730.20
  A 1.86 1.77 -29.4 0 1 1279.74 729.68
  L 1280.35 728.39
  A 3.36 3.35 -29.4 0 0 1280.65 727.32
  Q 1281.22 721.80 1282.87 712.04
  Q 1283.33 709.37 1283.83 698.47
  Q 1284.00 694.91 1284.44 689.57
  Q 1285.14 681.26 1285.26 680.69
  Q 1285.53 679.44 1285.25 677.83
  C 1284.81 675.34 1285.65 673.18 1285.28 671.07
  Q 1284.98 669.34 1284.11 667.38
  A 0.49 0.49 0.0 0 0 1283.17 667.58
  L 1283.17 668.01
  A 0.04 0.04 0.0 0 1 1283.09 668.02
  Q 1283.05 667.91 1283.04 667.75
  Q 1282.87 662.61 1282.86 656.25
  Q 1282.76 599.77 1282.78 545.00
  Q 1282.78 544.54 1282.65 544.26
  A 0.30 0.30 0.0 0 0 1282.15 544.20
  L 1206.77 637.48
  A 0.22 0.22 0.0 0 0 1206.94 637.84
  L 1232.85 637.84
  A 0.38 0.37 89.2 0 1 1233.22 638.21
  Q 1233.36 649.23 1233.45 669.72
  Q 1233.52 688.58 1231.58 701.19
  Q 1226.64 733.12 1215.54 757.32
  C 1187.17 819.13 1129.90 862.89 1062.10 872.43
  C 1039.86 875.56 1016.85 874.48 994.75 869.77
  Q 992.39 869.27 988.77 868.16
  A 0.06 0.05 43.2 0 1 988.76 868.05
  L 989.10 867.94
  A 0.26 0.25 50.2 0 0 989.14 867.47
  C 987.77 866.77 985.36 865.72 983.71 865.21
  Q 971.71 861.44 966.55 859.00
  Q 944.31 848.47 944.15 848.40
  Q 941.38 847.25 931.62 840.65
  Q 918.78 831.98 907.67 822.21
  A 0.79 0.79 0.0 0 1 908.02 820.84
  Q 914.61 819.41 921.63 819.15
  A 11.36 10.53 35.3 0 0 923.67 818.88
  Q 937.63 815.57 940.62 814.59
  Q 947.94 812.20 948.67 812.18
  A 4.88 4.87 -62.3 0 0 951.19 811.39
  Q 954.20 809.40 958.01 808.58
  A 6.00 5.83 25.2 0 0 959.35 808.12
  Q 962.21 806.70 967.68 804.49
  Q 968.35 804.21 970.65 802.12
  A 2.28 2.27 13.8 0 1 971.48 801.62
  Q 977.48 799.50 978.95 798.15
  C 983.11 794.33 984.91 792.37 989.51 791.09
  A 2.07 2.02 -73.3 0 0 990.36 790.62
  L 1007.23 775.04
  A 2.20 1.41 -49.4 0 0 1007.44 774.81
  C 1010.57 770.79 1014.95 767.78 1017.20 763.17
  C 1018.54 760.42 1021.44 758.53 1022.87 756.21
  C 1024.28 753.92 1024.92 752.71 1026.22 751.13
  Q 1026.35 750.97 1028.40 748.86
  A 5.61 5.60 79.6 0 0 1029.46 747.32
  L 1033.74 737.95
  A 0.28 0.25 -14.9 0 1 1033.80 737.86
  C 1036.83 734.30 1037.46 731.17 1039.41 726.56
  Q 1039.98 725.22 1041.33 724.05
  C 1042.98 722.61 1042.69 720.57 1043.97 718.94
  Q 1044.98 717.65 1045.36 716.75
  A 2.11 2.03 53.8 0 0 1045.49 715.79
  Q 1045.24 713.54 1045.32 713.27
  Q 1046.57 709.12 1047.27 703.80
  C 1047.98 698.46 1051.40 692.75 1048.47 686.37
  A 1.66 1.61 -53.8 0 1 1048.34 685.42
  Q 1049.92 674.42 1049.93 655.50
  C 1049.99 564.76 1049.79 461.24 1049.94 424.42
  A 0.34 0.34 0.0 0 1 1050.43 424.11
  L 1050.89 424.33
  A 0.45 0.45 0.0 0 0 1051.53 423.95
  Q 1051.85 419.00 1051.81 413.50
  Q 1051.80 412.34 1051.73 396.00
  C 1051.70 387.40 1051.78 378.98 1052.40 371.16
  C 1052.86 365.37 1056.08 357.53 1061.20 353.50
  Q 1062.59 352.41 1065.09 349.98
  A 0.89 0.85 12.7 0 1 1065.39 349.80
  L 1067.78 349.06
  A 1.47 1.06 9.2 0 0 1068.02 348.94
  L 1074.68 344.93
  A 2.31 2.27 -59.2 0 1 1075.93 344.60
  Q 1078.45 344.67 1078.99 342.97
  A 1.08 1.06 87.8 0 1 1079.62 342.28
  C 1080.90 341.76 1081.97 339.68 1083.94 339.65
  A 1.71 1.66 -63.2 0 0 1084.92 339.31
  Q 1086.60 338.06 1087.83 337.83
  A 0.38 0.37 -87.5 0 0 1088.13 337.55
  Q 1088.14 337.53 1088.17 337.34
  A 0.81 0.80 79.8 0 1 1088.56 336.77
  Q 1091.79 334.96 1093.62 333.68
  Q 1094.61 332.98 1095.10 332.29
  Q 1097.84 328.42 1101.59 326.45
  A 2.46 2.39 2.3 0 0 1102.44 325.69
  C 1104.92 321.98 1109.22 319.90 1110.72 317.21
  Q 1115.42 308.82 1118.59 303.98
  Q 1120.14 301.61 1121.16 299.42
  C 1123.13 295.20 1125.56 291.90 1127.27 287.79
  Q 1129.49 282.46 1132.51 274.81
  C 1133.27 272.89 1133.09 268.39 1133.64 265.59
  C 1135.92 254.09 1136.85 241.71 1135.00 229.52
  Q 1133.18 217.49 1132.85 216.12
  C 1131.83 211.83 1128.37 201.80 1124.30 199.52
  A 0.02 0.02 0.0 0 0 1124.27 199.55
  Q 1124.34 199.68 1124.26 199.79
  A 0.12 0.11 -39.0 0 1 1124.06 199.77
  Q 1117.49 185.40 1109.20 175.54
  C 1095.56 159.33 1077.80 146.82 1057.09 140.71
  Q 1045.11 137.18 1035.59 136.41
  C 1024.09 135.49 1011.43 135.83 999.51 138.81
  Q 959.70 148.76 935.76 182.59
  C 918.28 207.28 911.53 240.57 919.12 269.99
  Q 928.64 306.87 958.50 330.54
  Q 966.76 337.08 981.41 344.21
  Q 986.73 346.80 988.78 348.80
  C 1001.51 361.27 999.88 377.19 999.90 393.53
  Q 1000.05 520.19 1000.07 661.62
  C 1000.07 683.68 995.20 703.91 982.75 722.14
  C 965.18 747.85 936.00 766.67 904.32 767.66
  C 879.08 768.44 855.18 755.46 846.68 730.63
  C 840.63 712.95 838.37 694.03 838.90 675.19
  Q 838.92 674.36 838.94 675.19
  Q 839.03 678.14 839.12 678.61
  A 0.32 0.32 0.0 0 0 839.53 678.85
  L 841.21 678.33
  A 0.25 0.23 82.0 0 0 841.37 678.10
  Q 841.33 671.65 842.17 666.91
  Q 842.93 662.67 843.10 660.68
  Q 843.44 656.65 843.83 654.41
  Q 846.40 639.71 847.82 632.05
  Q 848.32 629.39 852.87 618.16
  A 9.00 6.55 86.7 0 0 853.25 617.02
  Q 854.86 611.06 855.83 608.89
  Q 858.04 603.88 859.35 600.52
  Q 860.89 596.56 863.85 592.23
  C 864.68 591.03 865.09 590.05 865.61 588.67
  A 4.09 4.03 78.3 0 1 866.53 587.25
  Q 867.68 586.12 872.03 580.51
  C 873.53 578.58 874.31 575.89 875.91 574.67
  C 877.37 573.55 878.53 570.82 880.42 569.17
  Q 882.84 567.07 883.96 564.50
  A 1.73 1.72 2.6 0 1 885.04 563.52
  L 885.62 563.34
  A 1.14 1.12 12.6 0 0 886.13 563.02
  Q 888.52 560.55 890.00 557.59
  Q 890.71 556.17 892.12 554.88
  Q 897.09 550.35 900.08 546.57
  Q 900.90 545.53 902.82 544.06
  Q 909.28 539.13 915.59 533.96
  Q 919.95 530.38 923.52 528.83
  C 928.34 526.74 935.59 524.50 939.91 520.72
  Q 946.43 515.02 953.74 511.32
  C 960.61 507.84 960.65 503.42 960.48 496.23
  Q 960.35 490.44 958.18 486.12
  A 1.07 1.03 -59.2 0 1 958.07 485.65
  L 958.07 453.16
  A 0.44 0.44 0.0 0 0 957.50 452.74
  C 936.82 459.20 916.35 469.24 897.60 481.36
  Q 859.87 505.73 833.73 541.94
  A 0.33 0.33 0.0 0 1 833.18 541.91
  Z
  M 959.48 609.39
  Q 959.40 608.18 958.52 607.43
  A 1.20 1.19 20.4 0 1 958.10 606.52
  L 958.10 552.30
  A 0.61 0.61 0.0 0 0 957.20 551.77
  C 934.48 564.26 915.28 583.10 901.74 604.99
  C 883.03 635.25 875.97 672.03 883.24 707.01
  Q 884.54 713.24 886.87 718.38
  C 890.49 726.33 901.47 726.26 908.81 725.11
  A 0.46 0.29 -31.7 0 1 908.94 725.11
  L 918.44 726.44
  A 1.21 1.19 -49.3 0 0 919.03 726.39
  C 922.61 725.24 924.67 724.29 926.43 724.38
  C 928.35 724.47 929.28 722.86 930.68 721.18
  Q 931.23 720.51 933.38 720.38
  A 0.12 0.04 -5.8 0 0 933.51 720.32
  Q 933.50 720.28 933.38 720.08
  A 0.08 0.08 0.0 0 1 933.44 719.96
  Q 933.75 719.91 934.93 718.43
  Q 937.41 715.32 939.75 713.39
  Q 942.27 711.30 942.57 710.92
  Q 943.96 709.15 945.16 708.16
  Q 946.67 706.92 948.73 703.82
  Q 951.85 699.14 953.06 697.03
  A 1.08 0.02 -47.1 0 1 953.73 696.28
  Q 954.75 695.17 955.34 693.26
  Q 959.50 679.77 959.53 677.94
  A 3.39 1.00 88.7 0 0 959.52 677.46
  Q 959.43 675.99 960.03 670.94
  Q 960.56 666.47 960.54 654.44
  Q 960.52 637.52 959.83 609.33
  A 0.19 0.19 0.0 0 1 960.19 609.25
  Q 960.58 610.24 960.50 610.47
  A 0.98 0.45 71.1 0 1 959.48 609.39
  Z"
/>
<path fill="#1e4c36" d="
  M 1082.82 233.36
  L 1082.79 233.15
  A 0.03 0.03 0.0 0 1 1082.85 233.14
  Q 1084.31 239.67 1083.88 246.61
  Q 1082.25 272.88 1063.54 289.10
  Q 1052.19 298.93 1036.06 302.32
  C 1014.24 306.90 991.41 297.47 977.90 279.89
  Q 974.44 275.40 972.67 271.59
  A 2.81 2.73 -60.6 0 1 972.42 270.64
  Q 972.07 265.39 971.02 262.05
  Q 969.22 256.38 968.60 253.50
  A 6.59 2.14 80.7 0 1 968.42 252.59
  Q 968.39 252.38 968.21 243.50
  Q 968.15 240.48 969.01 237.82
  Q 969.81 235.35 969.93 233.41
  Q 970.15 230.00 970.76 228.96
  Q 972.34 226.25 972.76 223.77
  A 0.93 0.91 62.7 0 1 972.83 223.54
  L 978.95 212.51
  A 1.80 1.70 -9.7 0 1 979.25 212.11
  Q 981.82 209.55 985.43 205.10
  Q 986.86 203.33 989.41 202.08
  Q 990.61 201.48 992.96 199.74
  C 1000.41 194.21 1008.39 190.43 1018.15 189.98
  Q 1026.30 189.59 1032.74 189.93
  C 1045.17 190.57 1055.91 196.31 1065.13 205.12
  Q 1074.10 213.70 1077.85 223.14
  Q 1080.82 230.63 1082.42 233.50
  A 0.22 0.21 -64.0 0 0 1082.82 233.36
  Z"
/>
<circle fill="#1e4c36" cx="1294.98" cy="467.20" r="0.08"/>
<path fill="#1e4c36" d="
  M 1206.36 1165.06
  C 1204.69 1167.84 1205.33 1172.33 1206.00 1176.29
  Q 1207.52 1185.20 1211.41 1195.55
  Q 1213.22 1200.36 1216.14 1204.67
  C 1218.53 1208.21 1220.90 1212.95 1223.65 1216.18
  C 1232.00 1225.98 1243.80 1231.75 1255.90 1237.15
  Q 1261.85 1239.80 1270.35 1241.67
  Q 1274.54 1242.60 1277.02 1242.37
  Q 1291.28 1241.09 1296.35 1239.90
  Q 1307.99 1237.17 1313.70 1236.03
  C 1315.41 1235.69 1317.59 1234.77 1318.97 1233.74
  C 1326.23 1228.35 1334.84 1223.05 1340.61 1215.41
  A 0.93 0.93 0.0 0 1 1341.96 1215.27
  L 1353.08 1224.91
  A 0.34 0.34 0.0 0 0 1353.62 1224.77
  L 1353.87 1224.08
  A 0.36 0.36 0.0 0 1 1354.46 1223.95
  L 1367.67 1237.15
  A 1.03 1.03 0.0 0 1 1367.74 1238.53
  Q 1345.66 1265.58 1311.75 1273.75
  Q 1284.32 1280.35 1256.98 1275.28
  Q 1243.27 1272.74 1229.41 1266.42
  A 1.37 1.35 -88.5 0 1 1228.71 1265.67
  Q 1228.07 1263.94 1226.31 1262.91
  Q 1218.27 1258.16 1210.99 1252.76
  Q 1209.80 1251.88 1208.72 1250.74
  A 2.92 2.85 -8.1 0 0 1207.94 1250.17
  Q 1204.25 1248.33 1202.26 1246.24
  Q 1198.18 1241.95 1197.44 1241.48
  A 2.37 2.35 1.4 0 1 1196.70 1240.71
  Q 1195.70 1238.99 1193.94 1238.19
  A 0.84 0.81 -7.6 0 1 1193.68 1238.00
  L 1190.83 1235.16
  A 0.86 0.73 -85.3 0 1 1190.68 1234.95
  Q 1189.64 1232.94 1187.85 1230.77
  Q 1186.69 1229.36 1185.00 1226.83
  Q 1183.66 1224.82 1182.18 1222.58
  Q 1180.82 1220.54 1179.70 1218.14
  Q 1173.60 1205.13 1170.66 1192.18
  Q 1170.40 1191.03 1170.19 1189.33
  A 2.65 2.55 28.3 0 0 1169.89 1188.40
  Q 1168.92 1186.65 1168.61 1184.44
  C 1166.67 1170.65 1166.18 1158.87 1168.10 1145.56
  C 1168.58 1142.25 1170.07 1138.29 1170.56 1134.53
  Q 1170.78 1132.88 1172.25 1130.78
  A 3.18 3.10 73.3 0 0 1172.62 1130.07
  Q 1172.96 1129.17 1172.83 1127.42
  A 0.94 0.90 53.2 0 1 1172.87 1127.09
  L 1175.35 1118.34
  A 1.87 1.78 70.3 0 1 1175.55 1117.89
  Q 1176.81 1115.99 1177.50 1112.90
  Q 1177.98 1110.81 1180.56 1108.53
  A 1.84 1.79 80.1 0 0 1181.06 1107.80
  Q 1183.59 1100.79 1185.68 1098.16
  Q 1188.41 1094.73 1191.83 1090.08
  Q 1193.04 1088.43 1197.43 1084.09
  A 0.67 0.63 9.7 0 1 1197.64 1083.95
  L 1199.99 1082.93
  A 1.12 1.11 -6.0 0 0 1200.63 1082.15
  Q 1201.60 1077.68 1205.98 1076.63
  Q 1207.04 1076.38 1207.26 1075.97
  C 1207.58 1075.34 1207.61 1074.70 1208.09 1074.19
  Q 1210.48 1071.67 1213.51 1070.15
  A 4.47 4.16 10.2 0 0 1214.29 1069.65
  Q 1221.61 1063.77 1230.30 1059.56
  Q 1231.40 1059.02 1234.94 1058.19
  Q 1236.39 1057.85 1239.16 1055.84
  A 3.66 3.55 -70.9 0 1 1240.13 1055.35
  Q 1252.17 1051.32 1255.05 1051.06
  C 1260.81 1050.54 1265.57 1049.31 1271.21 1049.22
  Q 1276.44 1049.14 1288.81 1049.08
  Q 1291.65 1049.06 1293.16 1049.23
  Q 1297.03 1049.65 1297.06 1049.65
  A 1.69 1.65 52.6 0 1 1297.95 1049.78
  Q 1299.97 1050.63 1304.77 1050.93
  Q 1309.15 1051.21 1317.28 1053.07
  C 1325.29 1054.90 1335.08 1059.70 1341.13 1062.89
  C 1343.37 1064.07 1346.42 1066.22 1348.52 1068.53
  Q 1351.45 1071.76 1357.96 1078.19
  A 3.44 3.03 -3.6 0 0 1358.59 1078.68
  Q 1361.51 1080.47 1362.95 1083.85
  A 0.78 0.77 53.5 0 1 1362.83 1084.67
  Q 1361.50 1086.21 1360.62 1088.08
  A 3.00 2.73 -13.8 0 1 1360.15 1088.78
  L 1356.08 1093.29
  A 1.06 1.02 -21.6 0 0 1355.83 1093.84
  Q 1355.73 1094.76 1356.23 1095.05
  A 0.51 0.50 -53.2 0 1 1356.34 1095.84
  L 1341.44 1111.26
  A 1.10 1.10 0.0 0 1 1339.81 1111.21
  C 1326.18 1095.22 1308.18 1085.53 1287.37 1084.34
  Q 1258.94 1082.73 1237.93 1097.84
  Q 1225.21 1106.99 1217.36 1120.69
  Q 1209.66 1134.15 1207.75 1149.99
  Q 1206.60 1159.58 1206.71 1163.70
  A 2.55 2.55 0.0 0 1 1206.36 1165.06
  Z"
/>
<path fill="#1e4c36" d="
  M 1620.23 1148.15
  Q 1624.77 1188.68 1604.70 1223.02
  C 1596.83 1236.48 1586.18 1247.22 1573.93 1256.27
  Q 1566.52 1261.75 1558.30 1265.61
  C 1525.90 1280.83 1486.42 1281.67 1453.72 1266.99
  A 0.30 0.30 0.0 0 1 1453.72 1266.44
  L 1454.50 1266.10
  A 0.25 0.24 -41.7 0 0 1454.53 1265.66
  Q 1445.94 1260.67 1439.26 1257.34
  C 1437.73 1256.58 1435.64 1255.02 1434.50 1254.01
  Q 1424.11 1244.82 1416.15 1236.35
  Q 1408.46 1228.17 1403.99 1218.47
  Q 1401.88 1213.88 1399.13 1208.09
  Q 1396.95 1203.49 1394.25 1195.16
  Q 1392.48 1189.68 1391.39 1181.67
  Q 1389.16 1165.23 1390.64 1148.01
  Q 1391.48 1138.28 1394.90 1129.26
  A 7.14 7.10 -30.8 0 0 1395.28 1127.78
  Q 1395.55 1125.84 1397.01 1123.14
  A 3.03 2.98 64.1 0 0 1397.31 1122.25
  Q 1397.90 1118.57 1398.88 1116.62
  Q 1402.18 1110.09 1402.46 1109.32
  Q 1403.55 1106.24 1406.40 1102.29
  Q 1406.66 1101.94 1411.74 1094.05
  Q 1412.33 1093.14 1413.63 1092.27
  A 2.30 2.30 0.0 0 0 1414.32 1091.58
  Q 1417.81 1086.25 1418.16 1085.88
  A 7.44 2.85 -43.7 0 0 1418.85 1085.11
  Q 1419.17 1084.73 1424.47 1080.24
  A 5.28 5.28 0.0 0 0 1425.08 1079.63
  Q 1430.04 1073.74 1436.08 1070.71
  A 7.22 6.95 10.2 0 0 1437.55 1069.73
  C 1440.58 1067.09 1443.22 1064.45 1446.70 1063.62
  A 1.04 0.75 -54.2 0 0 1446.88 1063.56
  L 1455.21 1059.47
  A 1.43 1.21 4.7 0 0 1455.56 1059.22
  Q 1457.85 1057.02 1460.98 1056.11
  Q 1463.94 1055.26 1465.95 1054.90
  C 1468.29 1054.49 1470.94 1053.24 1472.74 1052.73
  Q 1478.57 1051.10 1478.69 1051.07
  A 5.05 4.68 -51.6 0 1 1479.80 1050.90
  Q 1485.18 1050.70 1490.75 1049.47
  A 4.90 4.56 36.8 0 1 1491.77 1049.36
  C 1497.72 1049.38 1503.49 1049.13 1509.28 1049.57
  C 1513.18 1049.86 1516.74 1049.03 1520.82 1049.97
  Q 1524.99 1050.92 1525.80 1050.99
  Q 1528.46 1051.22 1531.69 1051.43
  A 0.88 0.08 5.2 0 1 1531.80 1051.45
  L 1542.40 1053.67
  A 9.42 9.11 60.9 0 1 1544.02 1054.16
  L 1559.36 1060.34
  A 6.16 5.87 70.8 0 1 1560.43 1060.89
  L 1571.86 1068.31
  A 3.99 3.91 -4.0 0 1 1572.60 1068.94
  L 1573.55 1070.01
  A 0.38 0.26 73.9 0 0 1573.66 1070.10
  L 1577.95 1072.59
  A 2.94 2.74 78.0 0 1 1578.42 1072.92
  L 1585.13 1078.78
  A 1.17 0.52 24.0 0 1 1585.22 1078.88
  Q 1592.04 1087.13 1595.33 1091.68
  C 1598.67 1096.30 1602.27 1099.75 1605.13 1104.15
  C 1607.07 1107.13 1608.02 1112.21 1609.54 1115.12
  C 1611.22 1118.34 1614.44 1124.96 1615.14 1129.49
  Q 1616.61 1139.02 1619.05 1148.98
  A 0.37 0.36 44.0 0 0 1619.76 1148.97
  L 1619.94 1148.14
  A 0.15 0.15 0.0 0 1 1620.23 1148.15
  Z
  M 1576.89 1137.59
  Q 1577.13 1137.14 1576.76 1136.02
  Q 1575.78 1133.10 1574.22 1128.77
  Q 1573.37 1126.40 1572.07 1124.21
  Q 1570.83 1122.13 1569.71 1119.75
  Q 1569.58 1119.46 1569.22 1119.27
  A 0.89 0.87 7.6 0 1 1568.76 1118.68
  Q 1568.45 1117.23 1567.18 1116.22
  A 1.34 1.31 -84.9 0 1 1566.87 1115.84
  L 1565.29 1112.79
  A 0.84 0.81 -82.4 0 0 1565.10 1112.53
  L 1559.40 1106.66
  A 0.10 0.10 0.0 0 0 1559.32 1106.62
  Q 1559.14 1106.61 1559.05 1106.84
  A 0.30 0.30 0.0 0 1 1558.55 1106.94
  Q 1543.21 1090.70 1520.71 1085.79
  Q 1514.05 1084.34 1505.99 1084.21
  Q 1480.20 1083.79 1460.77 1097.88
  Q 1448.69 1106.64 1441.48 1118.65
  C 1426.46 1143.65 1426.04 1178.42 1440.53 1203.76
  A 0.49 0.48 60.0 0 1 1440.36 1204.42
  Q 1440.31 1204.45 1440.17 1204.51
  A 0.64 0.63 64.5 0 0 1439.86 1205.40
  Q 1440.18 1206.01 1440.61 1206.27
  A 0.66 0.65 -71.2 0 1 1440.93 1206.93
  Q 1440.86 1207.45 1441.15 1207.85
  Q 1444.82 1212.99 1445.05 1213.24
  Q 1447.70 1216.17 1453.37 1221.57
  C 1457.49 1225.49 1463.89 1229.92 1468.12 1232.83
  A 5.57 5.50 -17.1 0 0 1469.25 1233.42
  Q 1474.17 1235.28 1474.08 1235.42
  A 0.07 0.07 0.0 0 0 1474.12 1235.52
  L 1486.64 1239.51
  A 2.36 2.09 -32.5 0 0 1487.20 1239.60
  Q 1489.28 1239.69 1491.28 1240.45
  A 1.97 1.89 -32.2 0 0 1491.67 1240.53
  L 1497.30 1240.94
  A 1.86 1.84 70.4 0 1 1498.53 1241.53
  Q 1498.54 1241.53 1498.62 1241.63
  A 1.55 1.53 70.9 0 0 1499.63 1242.13
  C 1503.68 1242.44 1507.63 1242.97 1511.14 1241.73
  C 1514.12 1240.68 1516.94 1240.71 1519.29 1240.64
  A 1.80 1.72 -60.2 0 0 1520.17 1240.38
  Q 1522.30 1239.09 1523.50 1238.93
  Q 1527.25 1238.43 1530.99 1237.97
  Q 1532.17 1237.82 1533.76 1237.15
  Q 1537.10 1235.74 1541.48 1234.02
  Q 1542.36 1233.67 1542.83 1232.75
  Q 1543.63 1231.14 1545.47 1230.20
  C 1551.42 1227.16 1554.64 1223.89 1560.01 1218.23
  Q 1562.74 1215.34 1565.14 1213.14
  Q 1565.62 1212.70 1566.55 1210.71
  A 3.83 3.65 79.6 0 1 1567.10 1209.87
  Q 1570.05 1206.42 1571.36 1202.30
  A 2.75 2.70 -20.4 0 1 1571.67 1201.64
  Q 1572.32 1200.60 1572.72 1200.25
  A 3.07 2.93 -11.7 0 0 1573.56 1199.03
  L 1578.30 1186.00
  A 1.15 0.98 58.9 0 0 1578.36 1185.64
  Q 1578.31 1183.97 1578.96 1182.31
  A 2.56 2.39 61.5 0 0 1579.10 1181.77
  Q 1580.80 1171.00 1580.81 1159.00
  C 1580.82 1151.90 1579.25 1146.43 1577.22 1137.93
  A 0.24 0.22 -80.7 0 0 1577.13 1137.79
  L 1576.90 1137.64
  A 0.04 0.04 0.0 0 1 1576.89 1137.59
  Z"
/>
<path fill="#1e4c36" d="
  M 991.23 1273.09
  Q 986.03 1271.96 979.26 1271.96
  A 1.98 1.98 0.0 0 1 977.29 1269.98
  L 976.89 1102.21
  A 3.52 3.31 38.8 0 0 976.76 1101.28
  Q 976.10 1098.85 976.80 1095.95
  A 0.60 0.43 62.1 0 0 976.82 1095.80
  L 977.47 1058.01
  A 2.95 2.74 39.0 0 0 977.34 1057.10
  Q 976.74 1055.12 976.73 1052.46
  A 1.12 1.11 2.4 0 1 977.94 1051.35
  C 981.14 1051.61 987.62 1052.09 992.25 1051.78
  C 996.27 1051.51 1001.12 1052.09 1005.84 1051.68
  C 1008.95 1051.41 1011.84 1051.90 1015.38 1051.82
  Q 1044.14 1051.24 1081.26 1051.48
  C 1095.24 1051.57 1108.31 1051.38 1122.13 1051.39
  Q 1127.01 1051.39 1131.11 1050.95
  A 0.88 0.88 0.0 0 1 1132.08 1051.87
  C 1131.97 1054.17 1131.51 1057.06 1131.60 1058.67
  C 1131.93 1064.67 1131.14 1070.13 1131.53 1076.07
  Q 1131.76 1079.59 1131.51 1082.23
  Q 1131.41 1083.30 1130.71 1083.65
  Q 1130.02 1083.99 1129.91 1084.92
  A 0.54 0.54 0.0 0 0 1130.16 1085.44
  Q 1130.27 1085.51 1130.39 1085.57
  A 0.05 0.05 0.0 0 1 1130.37 1085.67
  L 1017.95 1085.67
  A 1.43 1.43 0.0 0 0 1016.52 1087.09
  L 1016.39 1108.56
  A 2.30 2.25 54.6 0 1 1016.28 1109.26
  Q 1015.14 1112.85 1015.01 1116.52
  Q 1014.52 1130.60 1015.55 1142.87
  A 1.14 1.14 0.0 0 0 1016.59 1143.91
  Q 1019.67 1144.18 1021.00 1144.15
  C 1037.23 1143.78 1049.05 1144.26 1066.34 1144.28
  Q 1093.28 1144.31 1099.75 1144.57
  Q 1100.91 1144.61 1103.26 1144.75
  C 1108.08 1145.01 1113.60 1144.17 1116.23 1144.58
  Q 1117.91 1144.84 1117.84 1147.32
  Q 1117.50 1158.43 1118.46 1170.48
  A 0.86 0.85 -70.0 0 0 1118.69 1170.98
  L 1119.14 1171.43
  A 0.14 0.14 0.0 0 0 1119.38 1171.33
  Q 1119.35 1166.64 1119.44 1159.50
  Q 1119.28 1159.09 1119.63 1159.04
  A 0.20 0.19 -5.0 0 1 1119.86 1159.23
  L 1119.86 1176.20
  A 1.07 1.07 0.0 0 1 1118.79 1177.27
  L 1017.46 1177.27
  A 1.10 1.10 0.0 0 0 1016.36 1178.37
  L 1016.36 1205.67
  A 0.12 0.11 42.2 0 1 1016.13 1205.68
  L 1015.98 1204.29
  A 0.06 0.06 0.0 0 0 1015.86 1204.29
  Q 1015.08 1207.69 1015.01 1210.35
  Q 1014.73 1220.69 1014.98 1230.93
  Q 1015.05 1234.12 1016.22 1238.41
  A 1.01 1.01 0.0 0 0 1016.81 1239.08
  Q 1020.29 1240.50 1023.80 1239.74
  A 3.98 3.88 38.5 0 1 1024.59 1239.66
  C 1066.35 1239.57 1086.81 1239.57 1106.53 1239.92
  Q 1120.00 1240.15 1134.82 1239.05
  A 1.72 1.71 -2.5 0 1 1136.66 1240.73
  Q 1136.82 1249.89 1136.71 1261.26
  Q 1136.68 1264.66 1137.32 1266.25
  A 0.19 0.19 0.0 0 0 1137.68 1266.22
  Q 1137.87 1265.39 1137.76 1264.35
  A 0.08 0.04 -15.2 0 1 1137.82 1264.30
  Q 1137.83 1264.29 1137.84 1264.29
  A 0.01 0.01 0.0 0 1 1137.86 1264.30
  L 1138.15 1272.97
  A 0.70 0.70 0.0 0 1 1137.45 1273.69
  L 990.58 1273.69
  A 0.24 0.22 78.3 0 1 990.37 1273.54
  Q 990.17 1272.98 991.23 1273.11
  A 0.01 0.01 0.0 0 0 991.23 1273.09
  Z"
/>
<path fill="#1e4c36" d="
  M 1853.30 1268.68
  L 1853.34 1273.09
  A 0.69 0.69 0.0 0 1 1852.65 1273.78
  L 1818.65 1273.78
  A 2.27 2.24 71.1 0 1 1816.86 1272.89
  L 1703.94 1125.08
  A 0.52 0.52 0.0 0 0 1703.00 1125.39
  L 1702.83 1162.81
  A 0.43 0.15 48.8 0 0 1702.92 1163.04
  Q 1702.95 1163.11 1702.92 1163.15
  A 0.04 0.03 69.2 0 1 1702.86 1163.12
  L 1702.81 1150.10
  A 0.09 0.09 0.0 0 0 1702.63 1150.07
  Q 1701.79 1152.78 1701.76 1154.12
  Q 1701.13 1193.31 1701.45 1231.03
  Q 1701.47 1233.89 1702.45 1236.56
  A 0.19 0.18 -55.4 0 0 1702.81 1236.49
  L 1702.81 1212.14
  A 0.05 0.05 0.0 0 1 1702.91 1212.14
  Q 1702.91 1212.21 1702.91 1212.51
  Q 1702.89 1217.52 1703.19 1272.47
  A 1.20 1.20 0.0 0 1 1701.99 1273.68
  L 1663.72 1273.68
  A 1.68 1.68 0.0 0 1 1662.04 1272.00
  L 1662.04 1267.87
  A 0.14 0.13 15.0 0 1 1662.24 1267.76
  Q 1662.45 1267.89 1662.55 1267.56
  Q 1663.42 1264.80 1663.35 1261.43
  Q 1663.01 1244.86 1663.49 1222.71
  Q 1663.81 1207.58 1663.65 1196.27
  Q 1663.42 1180.20 1663.72 1169.83
  Q 1664.01 1159.73 1663.84 1156.67
  C 1663.50 1150.53 1663.95 1145.81 1663.70 1139.12
  Q 1663.47 1133.18 1663.66 1126.37
  C 1664.07 1111.79 1663.88 1096.14 1663.87 1083.50
  Q 1663.87 1082.59 1663.57 1080.31
  A 5.13 4.93 43.9 0 1 1663.53 1079.31
  Q 1664.37 1066.26 1663.12 1052.73
  A 1.33 1.33 0.0 0 1 1664.44 1051.28
  L 1695.26 1051.28
  A 2.84 2.83 -18.5 0 1 1697.52 1052.40
  Q 1699.75 1055.34 1701.25 1057.04
  C 1704.64 1060.87 1707.40 1065.22 1709.97 1069.32
  A 13.12 12.74 -83.3 0 0 1711.37 1071.15
  Q 1718.43 1078.74 1724.89 1088.58
  Q 1725.67 1089.78 1729.83 1094.45
  Q 1730.37 1095.06 1731.58 1097.51
  A 1.61 1.56 -89.1 0 0 1732.23 1098.20
  Q 1732.97 1098.62 1733.27 1098.99
  Q 1739.41 1106.58 1743.40 1112.36
  Q 1744.40 1113.81 1745.49 1114.72
  Q 1746.50 1115.55 1747.37 1117.02
  Q 1750.15 1121.73 1753.50 1125.05
  A 2.45 2.42 7.8 0 1 1753.80 1125.44
  L 1755.75 1128.64
  A 1.53 0.83 48.9 0 1 1755.84 1128.82
  Q 1756.68 1131.15 1758.40 1132.65
  Q 1760.63 1134.61 1762.32 1137.42
  Q 1763.38 1139.19 1765.11 1139.98
  Q 1765.27 1140.05 1765.64 1139.66
  A 0.38 0.37 47.8 0 1 1766.21 1139.69
  L 1811.40 1198.84
  A 0.63 0.63 0.0 0 0 1812.53 1198.46
  L 1812.53 1197.03
  A 0.05 0.04 43.2 0 1 1812.62 1197.03
  L 1812.73 1197.94
  A 0.55 0.55 0.0 0 0 1813.82 1197.87
  Q 1813.82 1191.94 1814.09 1188.77
  C 1814.62 1182.37 1814.05 1174.40 1814.06 1168.74
  Q 1814.11 1140.49 1814.26 1115.77
  Q 1814.38 1094.50 1814.44 1090.00
  Q 1814.62 1076.28 1814.33 1058.25
  Q 1814.28 1055.36 1813.82 1052.31
  A 1.03 1.01 85.6 0 1 1814.82 1051.13
  L 1851.35 1051.13
  A 0.69 0.69 0.0 0 1 1852.04 1051.85
  Q 1851.86 1058.45 1851.91 1062.00
  C 1852.48 1102.93 1851.74 1144.88 1851.93 1182.17
  Q 1852.07 1208.23 1851.95 1224.84
  Q 1851.76 1252.06 1851.93 1267.51
  Q 1851.94 1268.67 1852.52 1269.73
  A 0.35 0.35 0.0 0 0 1853.18 1269.57
  L 1853.18 1268.68
  A 0.06 0.06 0.0 0 1 1853.30 1268.68
  Z"
/>
<path fill="#1e4c36" d="
  M 267.63 1176.78
  C 264.88 1175.75 261.34 1175.97 257.98 1175.87
  Q 252.85 1175.73 247.31 1176.59
  A 1.79 1.78 -1.9 0 0 245.81 1178.18
  C 245.13 1185.39 244.63 1192.91 244.72 1201.10
  Q 245.07 1230.52 245.18 1260.91
  Q 245.20 1266.47 245.65 1270.34
  A 0.92 0.92 0.0 0 1 245.25 1271.20
  L 241.76 1273.52
  A 0.97 0.91 -59.0 0 1 241.27 1273.66
  L 207.39 1273.66
  A 1.39 1.38 -1.1 0 1 206.00 1272.33
  Q 205.87 1268.92 206.12 1261.20
  L 206.13 1261.20
  Q 206.05 1263.68 206.45 1265.44
  A 0.39 0.38 -48.5 0 0 207.21 1265.39
  C 207.40 1263.54 207.80 1261.89 207.85 1259.67
  C 208.17 1247.67 207.88 1234.82 208.17 1222.01
  Q 208.57 1204.39 208.31 1193.99
  Q 207.98 1181.17 208.10 1172.38
  Q 208.26 1161.05 208.18 1150.75
  Q 208.09 1138.24 208.19 1128.32
  C 208.41 1108.41 208.01 1090.79 208.13 1072.00
  Q 208.19 1062.49 207.70 1052.75
  A 1.36 1.36 0.0 0 1 209.06 1051.32
  L 244.88 1051.32
  A 0.86 0.86 0.0 0 1 245.74 1052.21
  C 245.17 1070.36 245.67 1090.88 245.52 1110.48
  Q 245.37 1128.79 245.66 1136.68
  Q 245.72 1138.16 246.06 1140.62
  A 0.89 0.88 89.5 0 0 246.81 1141.37
  L 253.45 1142.30
  A 0.90 0.77 38.4 0 0 253.74 1142.29
  Q 258.25 1141.51 265.35 1142.07
  C 269.14 1142.38 272.97 1141.28 276.96 1141.87
  C 278.25 1142.06 279.86 1141.52 281.00 1141.61
  Q 288.29 1142.13 295.75 1141.83
  Q 298.86 1141.70 300.24 1141.91
  C 302.13 1142.20 303.73 1141.89 306.25 1142.03
  Q 321.24 1142.86 326.00 1142.60
  Q 333.08 1142.22 342.74 1142.18
  Q 349.06 1142.16 353.81 1141.51
  A 2.50 2.50 0.0 0 0 355.96 1139.30
  C 356.47 1134.77 357.13 1127.46 356.78 1121.44
  Q 356.26 1112.54 356.66 1097.84
  A 13.88 13.60 41.8 0 0 356.50 1095.39
  Q 356.22 1093.57 356.22 1093.39
  Q 356.40 1082.46 356.33 1060.48
  Q 356.32 1057.11 355.69 1053.00
  A 1.19 1.19 0.0 0 1 356.87 1051.63
  C 361.07 1051.63 364.52 1051.31 368.05 1051.50
  Q 380.09 1052.13 392.86 1051.11
  A 0.90 0.90 0.0 0 1 393.83 1052.02
  Q 393.66 1063.47 393.66 1064.51
  Q 393.58 1113.31 393.61 1203.12
  Q 393.63 1247.36 393.97 1265.42
  Q 394.00 1267.06 394.47 1268.58
  A 0.29 0.28 -27.5 0 0 394.92 1268.72
  L 395.15 1268.55
  A 0.12 0.12 0.0 0 1 395.34 1268.64
  L 395.34 1272.75
  A 0.85 0.85 0.0 0 1 394.49 1273.60
  L 355.17 1273.60
  A 0.98 0.98 0.0 0 1 354.19 1272.62
  Q 354.18 1252.53 354.33 1235.32
  Q 354.24 1235.14 354.36 1235.07
  A 0.08 0.07 -17.4 0 1 354.48 1235.13
  L 354.48 1243.39
  A 0.08 0.08 0.0 0 0 354.64 1243.42
  Q 355.87 1240.42 356.15 1236.80
  C 356.73 1229.12 355.98 1217.60 356.53 1207.88
  C 356.80 1203.03 357.42 1195.76 354.86 1192.02
  A 0.24 0.24 0.0 0 0 354.42 1192.15
  L 354.42 1209.72
  A 0.03 0.03 0.0 0 1 354.36 1209.74
  C 354.16 1209.48 354.33 1193.45 354.27 1178.19
  A 1.06 1.06 0.0 0 0 353.19 1177.14
  Q 304.12 1177.85 256.65 1177.20
  Q 256.41 1177.20 256.39 1177.21
  Q 256.02 1177.36 256.09 1177.09
  A 0.11 0.10 -82.8 0 1 256.19 1177.01
  L 267.59 1177.01
  A 0.12 0.12 0.0 0 0 267.63 1176.78
  Z"
/>
<path fill="#1e4c36" d="
  M 454.12 1273.24
  C 450.34 1271.40 446.99 1271.85 442.65 1271.87
  C 437.42 1271.89 431.89 1272.49 426.49 1271.70
  A 1.17 1.17 0.0 0 1 425.60 1270.03
  Q 427.87 1265.34 428.43 1264.24
  Q 430.82 1259.50 430.96 1258.34
  Q 430.97 1258.23 436.68 1243.94
  Q 437.96 1240.76 438.80 1239.39
  C 439.74 1237.85 441.11 1235.64 441.86 1233.45
  Q 444.25 1226.38 448.45 1217.19
  C 454.04 1204.95 456.09 1199.77 461.95 1186.12
  Q 463.10 1183.45 464.48 1180.69
  Q 465.94 1177.77 468.27 1171.72
  Q 470.08 1167.01 479.53 1144.53
  Q 481.81 1139.09 483.77 1135.15
  Q 484.96 1132.74 488.25 1125.86
  Q 489.31 1123.65 490.05 1121.06
  Q 491.02 1117.68 491.77 1116.19
  Q 496.34 1107.06 496.84 1105.60
  Q 498.33 1101.24 499.81 1098.88
  A 3.78 3.55 -21.4 0 0 500.19 1098.08
  Q 502.57 1090.74 505.29 1086.23
  Q 507.10 1083.23 507.79 1080.24
  Q 509.23 1074.04 512.83 1067.55
  A 3.93 3.90 67.4 0 0 513.21 1066.62
  Q 514.11 1063.29 516.31 1059.03
  C 517.46 1056.82 517.99 1053.94 519.43 1052.00
  A 1.45 1.43 18.0 0 1 520.59 1051.42
  L 559.24 1051.56
  A 1.46 1.44 64.9 0 1 560.13 1051.89
  Q 560.98 1052.59 561.83 1055.18
  Q 563.04 1058.85 565.04 1061.94
  A 2.01 1.97 -71.0 0 1 565.22 1062.32
  L 568.18 1071.76
  A 1.13 1.04 -76.2 0 0 568.41 1072.18
  Q 569.61 1073.60 569.67 1074.54
  A 1.88 1.30 -4.9 0 0 571.69 1075.69
  Q 571.75 1075.68 571.80 1075.34
  A 0.14 0.13 38.0 0 1 572.06 1075.31
  L 657.91 1273.26
  A 0.23 0.22 -11.8 0 1 657.70 1273.57
  L 614.19 1273.57
  A 0.73 0.73 0.0 0 1 613.52 1273.13
  L 592.85 1223.71
  A 1.35 1.33 -11.1 0 0 591.61 1222.89
  L 486.69 1222.89
  A 1.38 1.38 0.0 0 0 485.41 1223.75
  L 465.52 1272.58
  A 1.85 1.85 0.0 0 1 463.81 1273.73
  L 453.45 1273.73
  A 0.18 0.17 -81.2 0 1 453.29 1273.50
  Q 453.40 1273.15 454.09 1273.30
  A 0.04 0.03 -22.1 0 0 454.12 1273.24
  Z
  M 557.98 1138.11
  L 540.08 1093.91
  A 0.68 0.68 0.0 0 0 538.91 1093.75
  Q 538.56 1094.21 538.19 1095.19
  Q 526.00 1127.22 514.01 1155.49
  A 0.11 0.02 -69.8 0 1 513.95 1155.59
  Q 513.90 1155.56 513.92 1155.51
  A 0.14 0.13 83.0 0 0 513.72 1155.35
  C 510.09 1158.01 509.89 1162.78 508.03 1166.56
  C 505.75 1171.18 503.95 1175.90 501.55 1180.38
  Q 499.47 1184.25 499.77 1188.65
  A 1.12 1.12 0.0 0 0 500.57 1189.65
  C 501.99 1190.08 503.80 1190.53 505.54 1190.58
  Q 513.91 1190.85 520.68 1190.55
  C 531.47 1190.06 538.28 1190.48 547.70 1190.07
  C 557.25 1189.65 569.72 1190.43 577.01 1189.98
  Q 579.75 1189.81 579.69 1186.91
  A 1.81 1.79 31.4 0 0 579.50 1186.15
  C 578.25 1183.61 577.69 1180.97 576.35 1178.22
  Q 575.32 1176.11 575.40 1174.97
  A 1.23 1.23 0.0 0 0 574.99 1173.97
  Q 573.96 1173.07 573.58 1170.94
  A 4.62 4.60 -65.7 0 0 572.99 1169.37
  Q 571.21 1166.43 569.88 1162.74
  Q 568.33 1158.42 566.86 1155.33
  Q 566.54 1154.65 566.28 1154.46
  Q 565.81 1154.12 565.83 1153.58
  Q 565.86 1152.96 565.41 1152.08
  Q 563.97 1149.30 563.67 1148.03
  A 2.67 2.63 -69.8 0 0 563.26 1147.13
  Q 562.05 1145.41 561.78 1144.08
  C 561.34 1141.93 560.26 1140.09 559.77 1138.17
  A 0.94 0.83 -26.5 0 0 558.35 1137.79
  Q 558.29 1137.83 558.21 1138.10
  A 0.12 0.12 0.0 0 1 557.98 1138.11
  Z"
/>
<path fill="#1e4c36" d="
  M 881.07 1129.48
  Q 881.04 1129.00 880.96 1128.93
  A 0.58 0.58 0.0 0 0 880.07 1129.08
  L 814.24 1247.82
  A 1.61 1.61 0.0 0 1 812.83 1248.65
  L 793.67 1248.65
  A 1.88 1.87 75.2 0 1 792.04 1247.70
  L 784.77 1234.72
  A 1.48 1.34 -62.9 0 1 784.59 1234.06
  Q 784.55 1232.82 783.89 1230.01
  C 783.52 1228.45 782.02 1228.14 781.91 1226.55
  A 1.74 1.67 28.4 0 0 781.67 1225.80
  Q 780.54 1224.04 778.90 1221.60
  Q 776.30 1217.73 776.19 1217.48
  Q 775.44 1215.85 773.01 1210.35
  A 3.95 3.80 -78.5 0 0 772.42 1209.42
  Q 769.77 1206.40 768.40 1203.26
  Q 765.55 1196.73 762.83 1193.13
  A 2.63 2.56 17.7 0 1 762.41 1192.34
  Q 761.14 1188.54 758.53 1185.75
  A 1.88 1.85 -72.6 0 1 758.03 1184.77
  Q 757.53 1182.11 756.71 1180.74
  Q 754.18 1176.52 751.82 1172.30
  Q 746.79 1163.28 746.26 1162.20
  A 10.42 8.58 52.5 0 0 745.39 1161.01
  L 743.02 1158.13
  A 0.40 0.40 0.0 0 0 742.47 1158.06
  Q 742.47 1158.07 742.41 1158.45
  A 0.13 0.12 -55.9 0 1 742.18 1158.50
  Q 739.83 1154.40 730.73 1137.15
  C 729.66 1135.12 727.46 1131.89 726.01 1129.47
  A 0.33 0.33 0.0 0 0 725.40 1129.64
  L 725.40 1272.94
  A 0.72 0.72 0.0 0 1 724.72 1273.66
  C 721.58 1273.84 719.21 1272.31 716.10 1272.02
  Q 708.45 1271.32 695.19 1271.84
  Q 692.63 1271.94 690.54 1271.77
  A 2.54 2.54 0.0 0 1 688.27 1269.86
  Q 687.90 1268.39 687.95 1266.00
  Q 688.30 1250.07 687.95 1238.25
  Q 687.52 1223.54 687.74 1194.08
  Q 688.00 1159.91 688.00 1149.91
  Q 688.01 1100.03 687.74 1052.53
  A 1.09 1.09 0.0 0 1 688.83 1051.44
  L 719.87 1051.44
  A 2.05 2.04 -14.2 0 1 721.67 1052.51
  L 734.29 1075.91
  A 0.64 0.63 82.6 0 0 734.67 1076.21
  Q 735.41 1076.41 735.63 1077.22
  A 0.93 0.83 15.2 0 0 735.91 1077.65
  Q 736.81 1078.39 737.70 1077.96
  A 0.52 0.51 62.1 0 1 738.37 1078.17
  L 782.45 1156.84
  A 0.61 0.59 -62.8 0 1 782.53 1157.10
  Q 783.02 1161.43 784.18 1163.46
  Q 789.61 1172.97 794.24 1182.24
  Q 795.23 1184.22 797.99 1187.74
  Q 798.00 1187.76 798.01 1187.78
  L 801.67 1194.98
  A 1.59 1.56 84.4 0 0 802.63 1195.78
  C 807.32 1197.13 807.07 1192.91 809.17 1190.73
  Q 811.11 1188.71 811.76 1185.49
  A 2.43 2.43 0.0 0 1 812.18 1184.56
  Q 813.90 1182.21 814.94 1179.42
  Q 815.98 1176.65 817.56 1174.73
  A 3.75 3.67 -15.3 0 0 818.18 1173.67
  Q 819.55 1169.93 822.61 1165.77
  A 6.32 6.22 76.5 0 0 823.17 1164.84
  Q 824.80 1161.42 827.62 1157.78
  A 4.49 4.15 -17.5 0 0 828.25 1156.68
  Q 830.11 1151.97 832.68 1147.47
  Q 834.38 1144.50 836.30 1141.05
  Q 842.22 1130.42 843.11 1129.10
  Q 846.56 1123.99 848.18 1119.35
  A 3.40 3.20 74.9 0 1 848.65 1118.47
  Q 850.34 1116.18 854.07 1109.33
  Q 856.79 1104.32 862.29 1095.46
  Q 863.70 1093.18 865.10 1089.75
  Q 866.29 1086.84 868.44 1084.38
  A 1.55 1.38 -15.2 0 0 868.68 1084.01
  L 873.23 1074.37
  A 1.48 1.44 81.1 0 1 873.45 1074.06
  L 876.24 1070.99
  A 2.65 2.53 -15.9 0 0 876.77 1070.09
  Q 878.15 1065.79 878.59 1065.03
  Q 882.29 1058.56 884.87 1052.18
  A 1.18 1.18 0.0 0 1 885.96 1051.45
  L 917.84 1051.45
  A 0.89 0.89 0.0 0 1 918.73 1052.35
  Q 918.46 1082.31 918.66 1107.90
  Q 918.81 1127.09 918.44 1159.26
  C 918.24 1177.13 918.08 1197.99 919.35 1218.34
  A 0.26 0.25 -1.1 0 0 919.61 1218.58
  L 919.86 1218.58
  A 0.04 0.03 -75.1 0 0 919.89 1218.56
  L 920.24 1213.74
  A 0.19 0.16 -84.7 0 1 920.41 1213.57
  L 920.42 1213.57
  A 0.23 0.23 0.0 0 1 920.63 1213.80
  L 920.53 1273.26
  A 0.43 0.43 0.0 0 1 920.08 1273.69
  L 915.47 1273.51
  A 0.25 0.22 -12.0 0 1 915.29 1273.41
  Q 915.14 1273.20 915.61 1273.22
  A 0.06 0.06 0.0 0 0 915.63 1273.11
  C 908.03 1270.99 899.78 1271.91 888.71 1272.45
  Q 887.36 1272.51 882.90 1272.08
  A 0.53 0.52 5.4 0 1 882.42 1271.51
  Q 882.97 1266.01 883.04 1258.83
  Q 883.27 1234.86 883.10 1217.27
  Q 882.99 1205.17 883.13 1197.23
  C 883.39 1182.88 883.16 1170.85 883.36 1155.82
  Q 883.50 1145.56 882.97 1134.49
  Q 882.87 1132.46 882.00 1129.63
  A 0.40 0.35 4.3 0 0 881.77 1129.39
  Q 881.54 1129.31 881.33 1129.57
  A 0.15 0.15 0.0 0 1 881.07 1129.48
  Z"
/>
</svg>
